<?xml version="1.0" encoding="UTF-8"?><svg height="25.5026mm" viewBox="0 0 66.6 25.5026" width="66.6mm" xmlns="http://www.w3.org/2000/svg"><g fill="black" stroke="none"><rect height="16.3316" width="0.8" x="2.1" y="0"/><rect height="16.3316" width="0.4" x="3.3" y="0"/><rect height="16.3316" width="0.4" x="4.5" y="0"/><rect height="16.3316" width="0.4" x="6.5" y="0"/><rect height="16.3316" width="1.6" x="7.3" y="0"/><rect height="16.3316" width="0.4" x="9.7" y="0"/><rect height="16.3316" width="0.8" x="10.9" y="0"/><rect height="16.3316" width="0.4" x="13.3" y="0"/><rect height="16.3316" width="0.4" x="14.5" y="0"/><rect height="16.3316" width="0.4" x="15.3" y="0"/><rect height="16.3316" width="1.6" x="16.5" y="0"/><rect height="16.3316" width="0.4" x="18.9" y="0"/><rect height="16.3316" width="0.4" x="19.7" y="0"/><rect height="16.3316" width="0.8" x="21.7" y="0"/><rect height="16.3316" width="0.4" x="23.3" y="0"/><rect height="16.3316" width="0.4" x="24.1" y="0"/><rect height="16.3316" width="0.4" x="24.9" y="0"/><rect height="16.3316" width="0.8" x="26.1" y="0"/><rect height="16.3316" width="0.4" x="28.5" y="0"/><rect height="16.3316" width="1.2" x="29.7" y="0"/><rect height="16.3316" width="0.8" x="31.3" y="0"/><rect height="16.3316" width="0.4" x="32.9" y="0"/><rect height="16.3316" width="1.2" x="33.7" y="0"/><rect height="16.3316" width="1.6" x="35.3" y="0"/><rect height="16.3316" width="0.4" x="37.3" y="0"/><rect height="16.3316" width="0.8" x="38.1" y="0"/><rect height="16.3316" width="1.2" x="39.7" y="0"/><rect height="16.3316" width="0.4" x="41.7" y="0"/><rect height="16.3316" width="0.4" x="43.3" y="0"/><rect height="16.3316" width="0.8" x="44.1" y="0"/><rect height="16.3316" width="1.2" x="46.1" y="0"/><rect height="16.3316" width="0.4" x="48.5" y="0"/><rect height="16.3316" width="0.8" x="49.3" y="0"/><rect height="16.3316" width="0.4" x="50.5" y="0"/><rect height="16.3316" width="1.6" x="52.1" y="0"/><rect height="16.3316" width="0.4" x="54.1" y="0"/><rect height="16.3316" width="0.4" x="54.9" y="0"/><rect height="16.3316" width="0.8" x="55.7" y="0"/><rect height="16.3316" width="1.2" x="57.3" y="0"/><rect height="16.3316" width="0.8" x="59.3" y="0"/><rect height="16.3316" width="1.2" x="61.3" y="0"/><rect height="16.3316" width="0.4" x="62.9" y="0"/><rect height="16.3316" width="0.8" x="63.7" y="0"/><text font-family="Helvetica" font-size="7.0547" text-anchor="middle" x="33.3" y="22.8886">skuj_012345679</text></g></svg>